<mxfile host="app.diagrams.net" modified="2022-08-15T03:01:23.525Z" agent="5.0 (Windows NT 10.0; WOW64) AppleWebKit/537.36 (KHTML, like Gecko) Chrome/104.0.0.0 Safari/537.36" etag="YlbdgclkXcALwwpCe_K-" version="20.2.3" type="github">
  <diagram id="kgpKYQtTHZ0yAKxKKP6v" name="Page-1">
    <mxGraphModel dx="1422" dy="882" grid="1" gridSize="10" guides="1" tooltips="1" connect="1" arrows="1" fold="1" page="1" pageScale="1" pageWidth="850" pageHeight="11000" math="0" shadow="0">
      <root>
        <mxCell id="0" />
        <mxCell id="1" parent="0" />
        <mxCell id="3nuBFxr9cyL0pnOWT2aG-1" value="FireWall" style="shape=umlLifeline;perimeter=lifelinePerimeter;container=1;collapsible=0;recursiveResize=0;rounded=0;shadow=0;strokeWidth=1;" parent="1" vertex="1">
          <mxGeometry x="120" y="80" width="100" height="530" as="geometry" />
        </mxCell>
        <mxCell id="3nuBFxr9cyL0pnOWT2aG-2" value="" style="points=[];perimeter=orthogonalPerimeter;rounded=0;shadow=0;strokeWidth=1;" parent="3nuBFxr9cyL0pnOWT2aG-1" vertex="1">
          <mxGeometry x="45" y="70" width="10" height="460" as="geometry" />
        </mxCell>
        <mxCell id="OrFUJ4ZmauogPBNhCRfa-3" value="" style="verticalAlign=bottom;endArrow=block;entryX=-0.1;entryY=-0.012;shadow=0;strokeWidth=1;entryDx=0;entryDy=0;entryPerimeter=0;fontSize=12;" edge="1" parent="3nuBFxr9cyL0pnOWT2aG-1">
          <mxGeometry relative="1" as="geometry">
            <mxPoint x="221" y="135.99999999999994" as="sourcePoint" />
            <mxPoint x="55" y="135.99999999999994" as="targetPoint" />
          </mxGeometry>
        </mxCell>
        <mxCell id="3nuBFxr9cyL0pnOWT2aG-5" value="InstanctConnect" style="shape=umlLifeline;perimeter=lifelinePerimeter;container=1;collapsible=0;recursiveResize=0;rounded=0;shadow=0;strokeWidth=1;" parent="1" vertex="1">
          <mxGeometry x="300" y="80" width="100" height="530" as="geometry" />
        </mxCell>
        <mxCell id="3nuBFxr9cyL0pnOWT2aG-6" value="" style="points=[];perimeter=orthogonalPerimeter;rounded=0;shadow=0;strokeWidth=1;" parent="3nuBFxr9cyL0pnOWT2aG-5" vertex="1">
          <mxGeometry x="45" y="80" width="10" height="450" as="geometry" />
        </mxCell>
        <mxCell id="OrFUJ4ZmauogPBNhCRfa-8" value="" style="endArrow=classic;html=1;rounded=0;" edge="1" parent="3nuBFxr9cyL0pnOWT2aG-5">
          <mxGeometry width="50" height="50" relative="1" as="geometry">
            <mxPoint x="-125" y="166.5" as="sourcePoint" />
            <mxPoint x="45" y="166.5" as="targetPoint" />
            <Array as="points">
              <mxPoint x="-24.5" y="166.5" />
            </Array>
          </mxGeometry>
        </mxCell>
        <mxCell id="OrFUJ4ZmauogPBNhCRfa-1" value="LicenseManager" style="shape=umlLifeline;perimeter=lifelinePerimeter;container=1;collapsible=0;recursiveResize=0;rounded=0;shadow=0;strokeWidth=1;" vertex="1" parent="1">
          <mxGeometry x="650" y="80" width="100" height="530" as="geometry" />
        </mxCell>
        <mxCell id="OrFUJ4ZmauogPBNhCRfa-2" value="" style="points=[];perimeter=orthogonalPerimeter;rounded=0;shadow=0;strokeWidth=1;" vertex="1" parent="OrFUJ4ZmauogPBNhCRfa-1">
          <mxGeometry x="45" y="80" width="10" height="450" as="geometry" />
        </mxCell>
        <mxCell id="OrFUJ4ZmauogPBNhCRfa-6" value="" style="endArrow=classic;html=1;rounded=0;" edge="1" parent="1">
          <mxGeometry width="50" height="50" relative="1" as="geometry">
            <mxPoint x="180" y="170" as="sourcePoint" />
            <mxPoint x="350" y="170" as="targetPoint" />
            <Array as="points">
              <mxPoint x="250" y="170" />
              <mxPoint x="270" y="170" />
              <mxPoint x="310" y="170" />
            </Array>
          </mxGeometry>
        </mxCell>
        <mxCell id="OrFUJ4ZmauogPBNhCRfa-9" value="Connect to ZT Server" style="text;html=1;align=center;verticalAlign=middle;resizable=0;points=[];autosize=1;strokeColor=none;fillColor=none;" vertex="1" parent="1">
          <mxGeometry x="180" y="145" width="140" height="30" as="geometry" />
        </mxCell>
        <mxCell id="OrFUJ4ZmauogPBNhCRfa-11" value="MySonicWall" style="shape=umlLifeline;perimeter=lifelinePerimeter;container=1;collapsible=0;recursiveResize=0;rounded=0;shadow=0;strokeWidth=1;" vertex="1" parent="1">
          <mxGeometry x="490" y="80" width="100" height="530" as="geometry" />
        </mxCell>
        <mxCell id="OrFUJ4ZmauogPBNhCRfa-12" value="" style="points=[];perimeter=orthogonalPerimeter;rounded=0;shadow=0;strokeWidth=1;" vertex="1" parent="OrFUJ4ZmauogPBNhCRfa-11">
          <mxGeometry x="45" y="80" width="10" height="450" as="geometry" />
        </mxCell>
        <mxCell id="OrFUJ4ZmauogPBNhCRfa-23" value="Get ZT Key Response" style="text;html=1;align=center;verticalAlign=middle;resizable=0;points=[];autosize=1;strokeColor=none;fillColor=none;fontSize=12;" vertex="1" parent="OrFUJ4ZmauogPBNhCRfa-11">
          <mxGeometry x="-103" y="357" width="140" height="30" as="geometry" />
        </mxCell>
        <mxCell id="OrFUJ4ZmauogPBNhCRfa-22" value="Get ZT Key Request" style="text;html=1;align=center;verticalAlign=middle;resizable=0;points=[];autosize=1;strokeColor=none;fillColor=none;fontSize=12;" vertex="1" parent="OrFUJ4ZmauogPBNhCRfa-11">
          <mxGeometry x="-98" y="327" width="130" height="30" as="geometry" />
        </mxCell>
        <mxCell id="OrFUJ4ZmauogPBNhCRfa-14" value="" style="endArrow=classic;html=1;rounded=0;fontSize=12;" edge="1" parent="1" source="OrFUJ4ZmauogPBNhCRfa-12">
          <mxGeometry width="50" height="50" relative="1" as="geometry">
            <mxPoint x="400" y="380" as="sourcePoint" />
            <mxPoint x="350" y="350" as="targetPoint" />
          </mxGeometry>
        </mxCell>
        <mxCell id="OrFUJ4ZmauogPBNhCRfa-16" value="" style="endArrow=classic;html=1;rounded=0;fontSize=12;" edge="1" parent="1">
          <mxGeometry width="50" height="50" relative="1" as="geometry">
            <mxPoint x="695" y="457" as="sourcePoint" />
            <mxPoint x="350" y="457" as="targetPoint" />
          </mxGeometry>
        </mxCell>
        <mxCell id="OrFUJ4ZmauogPBNhCRfa-18" value="Validate SerialNumber Request" style="text;html=1;align=center;verticalAlign=middle;resizable=0;points=[];autosize=1;strokeColor=none;fillColor=none;fontSize=12;" vertex="1" parent="1">
          <mxGeometry x="350" y="300" width="190" height="30" as="geometry" />
        </mxCell>
        <mxCell id="OrFUJ4ZmauogPBNhCRfa-19" value="" style="endArrow=classic;html=1;rounded=0;fontSize=12;" edge="1" parent="1" source="3nuBFxr9cyL0pnOWT2aG-6" target="OrFUJ4ZmauogPBNhCRfa-11">
          <mxGeometry width="50" height="50" relative="1" as="geometry">
            <mxPoint x="360" y="310" as="sourcePoint" />
            <mxPoint x="450" y="330" as="targetPoint" />
            <Array as="points">
              <mxPoint x="480" y="320" />
            </Array>
          </mxGeometry>
        </mxCell>
        <mxCell id="OrFUJ4ZmauogPBNhCRfa-20" value="Validate SerialNumber Response" style="text;html=1;align=center;verticalAlign=middle;resizable=0;points=[];autosize=1;strokeColor=none;fillColor=none;fontSize=12;" vertex="1" parent="1">
          <mxGeometry x="350" y="330" width="200" height="30" as="geometry" />
        </mxCell>
        <mxCell id="OrFUJ4ZmauogPBNhCRfa-21" value="" style="endArrow=classic;html=1;rounded=0;fontSize=12;exitX=0.9;exitY=0.626;exitDx=0;exitDy=0;exitPerimeter=0;" edge="1" parent="1">
          <mxGeometry width="50" height="50" relative="1" as="geometry">
            <mxPoint x="354" y="429.70000000000005" as="sourcePoint" />
            <mxPoint x="699.5" y="429.70000000000005" as="targetPoint" />
          </mxGeometry>
        </mxCell>
        <mxCell id="OrFUJ4ZmauogPBNhCRfa-24" value="" style="endArrow=classic;html=1;rounded=0;fontSize=12;" edge="1" parent="1" source="3nuBFxr9cyL0pnOWT2aG-6" target="3nuBFxr9cyL0pnOWT2aG-1">
          <mxGeometry width="50" height="50" relative="1" as="geometry">
            <mxPoint x="400" y="480" as="sourcePoint" />
            <mxPoint x="450" y="430" as="targetPoint" />
            <Array as="points">
              <mxPoint x="290" y="530" />
            </Array>
          </mxGeometry>
        </mxCell>
        <mxCell id="OrFUJ4ZmauogPBNhCRfa-25" value="" style="endArrow=classic;html=1;rounded=0;fontSize=12;" edge="1" parent="1" source="3nuBFxr9cyL0pnOWT2aG-2" target="3nuBFxr9cyL0pnOWT2aG-6">
          <mxGeometry width="50" height="50" relative="1" as="geometry">
            <mxPoint x="400" y="480" as="sourcePoint" />
            <mxPoint x="450" y="430" as="targetPoint" />
            <Array as="points">
              <mxPoint x="290" y="570" />
            </Array>
          </mxGeometry>
        </mxCell>
        <mxCell id="OrFUJ4ZmauogPBNhCRfa-26" value="Auth2 Request(ZTKey)" style="text;html=1;align=center;verticalAlign=middle;resizable=0;points=[];autosize=1;strokeColor=none;fillColor=none;fontSize=12;" vertex="1" parent="1">
          <mxGeometry x="198" y="500" width="150" height="30" as="geometry" />
        </mxCell>
        <mxCell id="OrFUJ4ZmauogPBNhCRfa-27" value="Auth2 Response" style="text;html=1;align=center;verticalAlign=middle;resizable=0;points=[];autosize=1;strokeColor=none;fillColor=none;fontSize=12;" vertex="1" parent="1">
          <mxGeometry x="215" y="540" width="110" height="30" as="geometry" />
        </mxCell>
        <mxCell id="OrFUJ4ZmauogPBNhCRfa-28" value="(SN/AuthCode)" style="text;html=1;align=center;verticalAlign=middle;resizable=0;points=[];autosize=1;strokeColor=none;fillColor=none;fontSize=12;" vertex="1" parent="1">
          <mxGeometry x="210" y="245" width="100" height="30" as="geometry" />
        </mxCell>
        <mxCell id="OrFUJ4ZmauogPBNhCRfa-29" value="FireWall" style="shape=umlLifeline;perimeter=lifelinePerimeter;container=1;collapsible=0;recursiveResize=0;rounded=0;shadow=0;strokeWidth=1;" vertex="1" parent="1">
          <mxGeometry x="130" y="730" width="100" height="430" as="geometry" />
        </mxCell>
        <mxCell id="OrFUJ4ZmauogPBNhCRfa-30" value="" style="points=[];perimeter=orthogonalPerimeter;rounded=0;shadow=0;strokeWidth=1;" vertex="1" parent="OrFUJ4ZmauogPBNhCRfa-29">
          <mxGeometry x="45" y="70" width="10" height="320" as="geometry" />
        </mxCell>
        <mxCell id="OrFUJ4ZmauogPBNhCRfa-32" value="Global ZT Server" style="shape=umlLifeline;perimeter=lifelinePerimeter;container=1;collapsible=0;recursiveResize=0;rounded=0;shadow=0;strokeWidth=1;" vertex="1" parent="1">
          <mxGeometry x="310" y="730" width="100" height="430" as="geometry" />
        </mxCell>
        <mxCell id="OrFUJ4ZmauogPBNhCRfa-33" value="" style="points=[];perimeter=orthogonalPerimeter;rounded=0;shadow=0;strokeWidth=1;" vertex="1" parent="OrFUJ4ZmauogPBNhCRfa-32">
          <mxGeometry x="45" y="80" width="10" height="310" as="geometry" />
        </mxCell>
        <mxCell id="OrFUJ4ZmauogPBNhCRfa-35" value="LicenseManager" style="shape=umlLifeline;perimeter=lifelinePerimeter;container=1;collapsible=0;recursiveResize=0;rounded=0;shadow=0;strokeWidth=1;" vertex="1" parent="1">
          <mxGeometry x="660" y="730" width="100" height="420" as="geometry" />
        </mxCell>
        <mxCell id="OrFUJ4ZmauogPBNhCRfa-36" value="" style="points=[];perimeter=orthogonalPerimeter;rounded=0;shadow=0;strokeWidth=1;" vertex="1" parent="OrFUJ4ZmauogPBNhCRfa-35">
          <mxGeometry x="45" y="80" width="10" height="310" as="geometry" />
        </mxCell>
        <mxCell id="OrFUJ4ZmauogPBNhCRfa-37" value="" style="endArrow=classic;html=1;rounded=0;" edge="1" parent="1">
          <mxGeometry width="50" height="50" relative="1" as="geometry">
            <mxPoint x="190" y="820" as="sourcePoint" />
            <mxPoint x="360" y="820" as="targetPoint" />
            <Array as="points">
              <mxPoint x="260" y="820" />
              <mxPoint x="280" y="820" />
              <mxPoint x="320" y="820" />
            </Array>
          </mxGeometry>
        </mxCell>
        <mxCell id="OrFUJ4ZmauogPBNhCRfa-38" value="Connect to ZT Server" style="text;html=1;align=center;verticalAlign=middle;resizable=0;points=[];autosize=1;strokeColor=none;fillColor=none;" vertex="1" parent="1">
          <mxGeometry x="190" y="795" width="140" height="30" as="geometry" />
        </mxCell>
        <mxCell id="OrFUJ4ZmauogPBNhCRfa-39" value="Auth1 Response" style="text;html=1;align=center;verticalAlign=middle;resizable=0;points=[];autosize=1;strokeColor=none;fillColor=none;" vertex="1" parent="1">
          <mxGeometry x="205" y="865" width="110" height="30" as="geometry" />
        </mxCell>
        <mxCell id="OrFUJ4ZmauogPBNhCRfa-40" value="MySonicWall" style="shape=umlLifeline;perimeter=lifelinePerimeter;container=1;collapsible=0;recursiveResize=0;rounded=0;shadow=0;strokeWidth=1;" vertex="1" parent="1">
          <mxGeometry x="500" y="730" width="100" height="430" as="geometry" />
        </mxCell>
        <mxCell id="OrFUJ4ZmauogPBNhCRfa-41" value="" style="points=[];perimeter=orthogonalPerimeter;rounded=0;shadow=0;strokeWidth=1;" vertex="1" parent="OrFUJ4ZmauogPBNhCRfa-40">
          <mxGeometry x="45" y="80" width="10" height="310" as="geometry" />
        </mxCell>
        <mxCell id="OrFUJ4ZmauogPBNhCRfa-44" value="" style="endArrow=classic;html=1;rounded=0;fontSize=12;" edge="1" parent="1" source="OrFUJ4ZmauogPBNhCRfa-41">
          <mxGeometry width="50" height="50" relative="1" as="geometry">
            <mxPoint x="410" y="1030" as="sourcePoint" />
            <mxPoint x="360" y="1000" as="targetPoint" />
          </mxGeometry>
        </mxCell>
        <mxCell id="OrFUJ4ZmauogPBNhCRfa-46" value="Get ZT Server Request" style="text;html=1;align=center;verticalAlign=middle;resizable=0;points=[];autosize=1;strokeColor=none;fillColor=none;fontSize=12;" vertex="1" parent="1">
          <mxGeometry x="380" y="950" width="150" height="30" as="geometry" />
        </mxCell>
        <mxCell id="OrFUJ4ZmauogPBNhCRfa-47" value="" style="endArrow=classic;html=1;rounded=0;fontSize=12;" edge="1" parent="1" source="OrFUJ4ZmauogPBNhCRfa-33" target="OrFUJ4ZmauogPBNhCRfa-40">
          <mxGeometry width="50" height="50" relative="1" as="geometry">
            <mxPoint x="370" y="960" as="sourcePoint" />
            <mxPoint x="460" y="980" as="targetPoint" />
            <Array as="points">
              <mxPoint x="490" y="970" />
            </Array>
          </mxGeometry>
        </mxCell>
        <mxCell id="OrFUJ4ZmauogPBNhCRfa-48" value="Get ZT Server Response" style="text;html=1;align=center;verticalAlign=middle;resizable=0;points=[];autosize=1;strokeColor=none;fillColor=none;fontSize=12;" vertex="1" parent="1">
          <mxGeometry x="380" y="980" width="160" height="30" as="geometry" />
        </mxCell>
        <mxCell id="OrFUJ4ZmauogPBNhCRfa-52" value="Redirect" style="text;html=1;align=center;verticalAlign=middle;resizable=0;points=[];autosize=1;strokeColor=none;fillColor=none;fontSize=12;" vertex="1" parent="1">
          <mxGeometry x="250" y="1030" width="70" height="30" as="geometry" />
        </mxCell>
        <mxCell id="OrFUJ4ZmauogPBNhCRfa-54" value="(SN/AuthCode)" style="text;html=1;align=center;verticalAlign=middle;resizable=0;points=[];autosize=1;strokeColor=none;fillColor=none;fontSize=12;" vertex="1" parent="1">
          <mxGeometry x="210" y="883" width="100" height="30" as="geometry" />
        </mxCell>
        <mxCell id="OrFUJ4ZmauogPBNhCRfa-56" value="" style="endArrow=classic;html=1;rounded=0;fontSize=12;exitX=-0.3;exitY=0.794;exitDx=0;exitDy=0;exitPerimeter=0;" edge="1" parent="1" source="OrFUJ4ZmauogPBNhCRfa-33" target="OrFUJ4ZmauogPBNhCRfa-29">
          <mxGeometry width="50" height="50" relative="1" as="geometry">
            <mxPoint x="400" y="1010" as="sourcePoint" />
            <mxPoint x="450" y="960" as="targetPoint" />
          </mxGeometry>
        </mxCell>
        <mxCell id="OrFUJ4ZmauogPBNhCRfa-58" value="FireWall" style="shape=umlLifeline;perimeter=lifelinePerimeter;container=1;collapsible=0;recursiveResize=0;rounded=0;shadow=0;strokeWidth=1;" vertex="1" parent="1">
          <mxGeometry x="20" y="1190" width="100" height="700" as="geometry" />
        </mxCell>
        <mxCell id="OrFUJ4ZmauogPBNhCRfa-59" value="" style="points=[];perimeter=orthogonalPerimeter;rounded=0;shadow=0;strokeWidth=1;" vertex="1" parent="OrFUJ4ZmauogPBNhCRfa-58">
          <mxGeometry x="45" y="70" width="10" height="630" as="geometry" />
        </mxCell>
        <mxCell id="OrFUJ4ZmauogPBNhCRfa-61" value="InstanctConnect" style="shape=umlLifeline;perimeter=lifelinePerimeter;container=1;collapsible=0;recursiveResize=0;rounded=0;shadow=0;strokeWidth=1;" vertex="1" parent="1">
          <mxGeometry x="172" y="1190" width="165" height="700" as="geometry" />
        </mxCell>
        <mxCell id="OrFUJ4ZmauogPBNhCRfa-62" value="" style="points=[];perimeter=orthogonalPerimeter;rounded=0;shadow=0;strokeWidth=1;" vertex="1" parent="OrFUJ4ZmauogPBNhCRfa-61">
          <mxGeometry x="77.5" y="80" width="10" height="620" as="geometry" />
        </mxCell>
        <mxCell id="OrFUJ4ZmauogPBNhCRfa-63" value="" style="endArrow=classic;html=1;rounded=0;" edge="1" parent="OrFUJ4ZmauogPBNhCRfa-61">
          <mxGeometry width="50" height="50" relative="1" as="geometry">
            <mxPoint x="-97" y="170.5" as="sourcePoint" />
            <mxPoint x="73" y="170.5" as="targetPoint" />
            <Array as="points">
              <mxPoint x="3.5" y="170.5" />
            </Array>
          </mxGeometry>
        </mxCell>
        <mxCell id="OrFUJ4ZmauogPBNhCRfa-122" style="edgeStyle=orthogonalEdgeStyle;rounded=0;orthogonalLoop=1;jettySize=auto;html=1;exitX=0.5;exitY=1;exitDx=0;exitDy=0;fontSize=12;entryX=0.5;entryY=0;entryDx=0;entryDy=0;" edge="1" parent="OrFUJ4ZmauogPBNhCRfa-61">
          <mxGeometry relative="1" as="geometry">
            <mxPoint x="87" y="370" as="sourcePoint" />
            <mxPoint x="82" y="405" as="targetPoint" />
          </mxGeometry>
        </mxCell>
        <mxCell id="OrFUJ4ZmauogPBNhCRfa-120" value="" style="rhombus;whiteSpace=wrap;html=1;fontSize=12;" vertex="1" parent="OrFUJ4ZmauogPBNhCRfa-61">
          <mxGeometry x="32" y="270" width="100" height="100" as="geometry" />
        </mxCell>
        <mxCell id="OrFUJ4ZmauogPBNhCRfa-121" value="GetZtInfo&lt;br&gt;Success?" style="text;html=1;align=center;verticalAlign=middle;resizable=0;points=[];autosize=1;strokeColor=none;fillColor=none;fontSize=12;" vertex="1" parent="OrFUJ4ZmauogPBNhCRfa-61">
          <mxGeometry x="37" y="300" width="80" height="40" as="geometry" />
        </mxCell>
        <mxCell id="OrFUJ4ZmauogPBNhCRfa-79" value="" style="endArrow=classic;html=1;rounded=0;fontSize=12;" edge="1" parent="OrFUJ4ZmauogPBNhCRfa-61">
          <mxGeometry width="50" height="50" relative="1" as="geometry">
            <mxPoint x="78" y="450" as="sourcePoint" />
            <mxPoint x="-97.5" y="450" as="targetPoint" />
            <Array as="points">
              <mxPoint x="23" y="450" />
            </Array>
          </mxGeometry>
        </mxCell>
        <mxCell id="OrFUJ4ZmauogPBNhCRfa-80" value="" style="endArrow=classic;html=1;rounded=0;fontSize=12;" edge="1" parent="OrFUJ4ZmauogPBNhCRfa-61">
          <mxGeometry width="50" height="50" relative="1" as="geometry">
            <mxPoint x="-98" y="482" as="sourcePoint" />
            <mxPoint x="72" y="482" as="targetPoint" />
            <Array as="points">
              <mxPoint x="17" y="482" />
            </Array>
          </mxGeometry>
        </mxCell>
        <mxCell id="OrFUJ4ZmauogPBNhCRfa-81" value="Auth2 Request(ZTKey)" style="text;html=1;align=center;verticalAlign=middle;resizable=0;points=[];autosize=1;strokeColor=none;fillColor=none;fontSize=12;" vertex="1" parent="OrFUJ4ZmauogPBNhCRfa-61">
          <mxGeometry x="-75" y="430" width="150" height="30" as="geometry" />
        </mxCell>
        <mxCell id="OrFUJ4ZmauogPBNhCRfa-198" style="edgeStyle=orthogonalEdgeStyle;rounded=0;orthogonalLoop=1;jettySize=auto;html=1;exitX=0.5;exitY=1;exitDx=0;exitDy=0;fontSize=12;entryX=0.5;entryY=0;entryDx=0;entryDy=0;" edge="1" parent="OrFUJ4ZmauogPBNhCRfa-61">
          <mxGeometry relative="1" as="geometry">
            <mxPoint x="87.5" y="610" as="sourcePoint" />
            <mxPoint x="82.5" y="645" as="targetPoint" />
          </mxGeometry>
        </mxCell>
        <mxCell id="OrFUJ4ZmauogPBNhCRfa-199" value="" style="rhombus;whiteSpace=wrap;html=1;fontSize=12;" vertex="1" parent="OrFUJ4ZmauogPBNhCRfa-61">
          <mxGeometry x="33" y="510" width="100" height="100" as="geometry" />
        </mxCell>
        <mxCell id="OrFUJ4ZmauogPBNhCRfa-200" value="Auth2&lt;br&gt;Success?" style="text;html=1;align=center;verticalAlign=middle;resizable=0;points=[];autosize=1;strokeColor=none;fillColor=none;fontSize=12;" vertex="1" parent="OrFUJ4ZmauogPBNhCRfa-61">
          <mxGeometry x="38" y="540" width="80" height="40" as="geometry" />
        </mxCell>
        <mxCell id="OrFUJ4ZmauogPBNhCRfa-201" value="Yes" style="text;html=1;align=center;verticalAlign=middle;resizable=0;points=[];autosize=1;strokeColor=none;fillColor=none;fontSize=12;" vertex="1" parent="OrFUJ4ZmauogPBNhCRfa-61">
          <mxGeometry x="79" y="610" width="40" height="30" as="geometry" />
        </mxCell>
        <mxCell id="OrFUJ4ZmauogPBNhCRfa-202" value="No" style="text;html=1;align=center;verticalAlign=middle;resizable=0;points=[];autosize=1;strokeColor=none;fillColor=none;fontSize=12;" vertex="1" parent="OrFUJ4ZmauogPBNhCRfa-61">
          <mxGeometry x="128" y="560" width="40" height="30" as="geometry" />
        </mxCell>
        <mxCell id="OrFUJ4ZmauogPBNhCRfa-203" value="" style="endArrow=classic;html=1;rounded=0;fontSize=12;exitX=1;exitY=0.5;exitDx=0;exitDy=0;" edge="1" parent="OrFUJ4ZmauogPBNhCRfa-61" source="OrFUJ4ZmauogPBNhCRfa-199">
          <mxGeometry width="50" height="50" relative="1" as="geometry">
            <mxPoint x="228" y="670" as="sourcePoint" />
            <mxPoint x="178" y="560" as="targetPoint" />
          </mxGeometry>
        </mxCell>
        <mxCell id="OrFUJ4ZmauogPBNhCRfa-64" value="LicenseManager" style="shape=umlLifeline;perimeter=lifelinePerimeter;container=1;collapsible=0;recursiveResize=0;rounded=0;shadow=0;strokeWidth=1;" vertex="1" parent="1">
          <mxGeometry x="730" y="1190" width="100" height="700" as="geometry" />
        </mxCell>
        <mxCell id="OrFUJ4ZmauogPBNhCRfa-65" value="" style="points=[];perimeter=orthogonalPerimeter;rounded=0;shadow=0;strokeWidth=1;" vertex="1" parent="OrFUJ4ZmauogPBNhCRfa-64">
          <mxGeometry x="45" y="80" width="10" height="620" as="geometry" />
        </mxCell>
        <mxCell id="OrFUJ4ZmauogPBNhCRfa-66" value="" style="endArrow=classic;html=1;rounded=0;" edge="1" parent="1">
          <mxGeometry width="50" height="50" relative="1" as="geometry">
            <mxPoint x="80" y="1280" as="sourcePoint" />
            <mxPoint x="250" y="1280" as="targetPoint" />
            <Array as="points">
              <mxPoint x="150" y="1280" />
              <mxPoint x="170" y="1280" />
              <mxPoint x="210" y="1280" />
            </Array>
          </mxGeometry>
        </mxCell>
        <mxCell id="OrFUJ4ZmauogPBNhCRfa-67" value="Connect to ZT Server" style="text;html=1;align=center;verticalAlign=middle;resizable=0;points=[];autosize=1;strokeColor=none;fillColor=none;" vertex="1" parent="1">
          <mxGeometry x="89" y="1255" width="140" height="30" as="geometry" />
        </mxCell>
        <mxCell id="OrFUJ4ZmauogPBNhCRfa-68" value="Auth1 Response" style="text;html=1;align=center;verticalAlign=middle;resizable=0;points=[];autosize=1;strokeColor=none;fillColor=none;" vertex="1" parent="1">
          <mxGeometry x="105" y="1340" width="110" height="30" as="geometry" />
        </mxCell>
        <mxCell id="OrFUJ4ZmauogPBNhCRfa-69" value="MySonicWall" style="shape=umlLifeline;perimeter=lifelinePerimeter;container=1;collapsible=0;recursiveResize=0;rounded=0;shadow=0;strokeWidth=1;" vertex="1" parent="1">
          <mxGeometry x="570" y="1190" width="100" height="700" as="geometry" />
        </mxCell>
        <mxCell id="OrFUJ4ZmauogPBNhCRfa-70" value="" style="points=[];perimeter=orthogonalPerimeter;rounded=0;shadow=0;strokeWidth=1;" vertex="1" parent="OrFUJ4ZmauogPBNhCRfa-69">
          <mxGeometry x="45" y="80" width="10" height="620" as="geometry" />
        </mxCell>
        <mxCell id="OrFUJ4ZmauogPBNhCRfa-82" value="Auth2 Response" style="text;html=1;align=center;verticalAlign=middle;resizable=0;points=[];autosize=1;strokeColor=none;fillColor=none;fontSize=12;" vertex="1" parent="1">
          <mxGeometry x="130" y="1650" width="110" height="30" as="geometry" />
        </mxCell>
        <mxCell id="OrFUJ4ZmauogPBNhCRfa-83" value="(SN/AuthCode)" style="text;html=1;align=center;verticalAlign=middle;resizable=0;points=[];autosize=1;strokeColor=none;fillColor=none;fontSize=12;" vertex="1" parent="1">
          <mxGeometry x="110" y="1355" width="100" height="30" as="geometry" />
        </mxCell>
        <mxCell id="OrFUJ4ZmauogPBNhCRfa-96" value="NSM Cache" style="shape=umlLifeline;perimeter=lifelinePerimeter;container=1;collapsible=0;recursiveResize=0;rounded=0;shadow=0;strokeWidth=1;" vertex="1" parent="1">
          <mxGeometry x="385" y="1190" width="100" height="420" as="geometry" />
        </mxCell>
        <mxCell id="OrFUJ4ZmauogPBNhCRfa-97" value="" style="points=[];perimeter=orthogonalPerimeter;rounded=0;shadow=0;strokeWidth=1;" vertex="1" parent="OrFUJ4ZmauogPBNhCRfa-96">
          <mxGeometry x="45" y="80" width="10" height="310" as="geometry" />
        </mxCell>
        <mxCell id="OrFUJ4ZmauogPBNhCRfa-208" value="" style="ellipse;whiteSpace=wrap;html=1;fontSize=12;fillColor=none;" vertex="1" parent="OrFUJ4ZmauogPBNhCRfa-96">
          <mxGeometry x="-30" y="310" width="85" height="30" as="geometry" />
        </mxCell>
        <mxCell id="OrFUJ4ZmauogPBNhCRfa-206" value="do Full Auth" style="text;html=1;align=center;verticalAlign=middle;resizable=0;points=[];autosize=1;strokeColor=none;fillColor=none;fontSize=12;" vertex="1" parent="OrFUJ4ZmauogPBNhCRfa-96">
          <mxGeometry x="-35" y="310" width="90" height="30" as="geometry" />
        </mxCell>
        <mxCell id="OrFUJ4ZmauogPBNhCRfa-100" value="" style="endArrow=classic;html=1;rounded=0;fontSize=12;exitX=1;exitY=0.155;exitDx=0;exitDy=0;exitPerimeter=0;" edge="1" parent="1">
          <mxGeometry width="50" height="50" relative="1" as="geometry">
            <mxPoint x="265" y="1427.4" as="sourcePoint" />
            <mxPoint x="430" y="1427.4" as="targetPoint" />
          </mxGeometry>
        </mxCell>
        <mxCell id="OrFUJ4ZmauogPBNhCRfa-101" value="Get ZT Info" style="text;html=1;align=center;verticalAlign=middle;resizable=0;points=[];autosize=1;strokeColor=none;fillColor=none;fontSize=12;" vertex="1" parent="1">
          <mxGeometry x="300" y="1400" width="80" height="30" as="geometry" />
        </mxCell>
        <mxCell id="OrFUJ4ZmauogPBNhCRfa-102" value="" style="endArrow=classic;html=1;rounded=0;fontSize=12;entryX=0.5;entryY=0;entryDx=0;entryDy=0;exitX=-0.2;exitY=0.516;exitDx=0;exitDy=0;exitPerimeter=0;" edge="1" parent="1" source="OrFUJ4ZmauogPBNhCRfa-97" target="OrFUJ4ZmauogPBNhCRfa-120">
          <mxGeometry width="50" height="50" relative="1" as="geometry">
            <mxPoint x="400" y="1490" as="sourcePoint" />
            <mxPoint x="450" y="1440" as="targetPoint" />
          </mxGeometry>
        </mxCell>
        <mxCell id="OrFUJ4ZmauogPBNhCRfa-103" value="Response" style="text;html=1;align=center;verticalAlign=middle;resizable=0;points=[];autosize=1;strokeColor=none;fillColor=none;fontSize=12;" vertex="1" parent="1">
          <mxGeometry x="300" y="1450" width="80" height="30" as="geometry" />
        </mxCell>
        <mxCell id="OrFUJ4ZmauogPBNhCRfa-123" value="Yes" style="text;html=1;align=center;verticalAlign=middle;resizable=0;points=[];autosize=1;strokeColor=none;fillColor=none;fontSize=12;" vertex="1" parent="1">
          <mxGeometry x="256" y="1555" width="40" height="30" as="geometry" />
        </mxCell>
        <mxCell id="OrFUJ4ZmauogPBNhCRfa-124" value="No" style="text;html=1;align=center;verticalAlign=middle;resizable=0;points=[];autosize=1;strokeColor=none;fillColor=none;fontSize=12;" vertex="1" parent="1">
          <mxGeometry x="305" y="1490" width="40" height="30" as="geometry" />
        </mxCell>
        <mxCell id="OrFUJ4ZmauogPBNhCRfa-127" value="" style="endArrow=classic;html=1;rounded=0;fontSize=12;exitX=0.9;exitY=0.15;exitDx=0;exitDy=0;exitPerimeter=0;" edge="1" parent="1">
          <mxGeometry width="50" height="50" relative="1" as="geometry">
            <mxPoint x="184" y="887" as="sourcePoint" />
            <mxPoint x="359.5" y="887" as="targetPoint" />
          </mxGeometry>
        </mxCell>
        <mxCell id="OrFUJ4ZmauogPBNhCRfa-128" value="" style="endArrow=classic;html=1;rounded=0;fontSize=12;exitX=-0.4;exitY=0.265;exitDx=0;exitDy=0;exitPerimeter=0;" edge="1" parent="1">
          <mxGeometry width="50" height="50" relative="1" as="geometry">
            <mxPoint x="351" y="858.1500000000001" as="sourcePoint" />
            <mxPoint x="179.5" y="858.1500000000001" as="targetPoint" />
          </mxGeometry>
        </mxCell>
        <mxCell id="OrFUJ4ZmauogPBNhCRfa-129" value="Auth1 Request" style="text;html=1;align=center;verticalAlign=middle;resizable=0;points=[];autosize=1;strokeColor=none;fillColor=none;fontSize=12;" vertex="1" parent="1">
          <mxGeometry x="210" y="835" width="100" height="30" as="geometry" />
        </mxCell>
        <mxCell id="OrFUJ4ZmauogPBNhCRfa-131" value="" style="endArrow=classic;html=1;rounded=0;fontSize=12;exitX=-0.1;exitY=0.088;exitDx=0;exitDy=0;exitPerimeter=0;" edge="1" parent="1">
          <mxGeometry width="50" height="50" relative="1" as="geometry">
            <mxPoint x="251" y="1329.6399999999999" as="sourcePoint" />
            <mxPoint x="76.5" y="1329.6399999999999" as="targetPoint" />
          </mxGeometry>
        </mxCell>
        <mxCell id="OrFUJ4ZmauogPBNhCRfa-132" value="Auth1 Request" style="text;html=1;align=center;verticalAlign=middle;resizable=0;points=[];autosize=1;strokeColor=none;fillColor=none;fontSize=12;" vertex="1" parent="1">
          <mxGeometry x="109" y="1307" width="100" height="30" as="geometry" />
        </mxCell>
        <mxCell id="OrFUJ4ZmauogPBNhCRfa-134" value="Auth1 Request" style="text;html=1;align=center;verticalAlign=middle;resizable=0;points=[];autosize=1;strokeColor=none;fillColor=none;fontSize=12;" vertex="1" parent="1">
          <mxGeometry x="210" y="194" width="100" height="30" as="geometry" />
        </mxCell>
        <mxCell id="OrFUJ4ZmauogPBNhCRfa-135" value="Auth1 Response" style="text;html=1;align=center;verticalAlign=middle;resizable=0;points=[];autosize=1;strokeColor=none;fillColor=none;fontSize=12;" vertex="1" parent="1">
          <mxGeometry x="205" y="225" width="110" height="30" as="geometry" />
        </mxCell>
        <mxCell id="OrFUJ4ZmauogPBNhCRfa-136" value="FireWall" style="shape=umlLifeline;perimeter=lifelinePerimeter;container=1;collapsible=0;recursiveResize=0;rounded=0;shadow=0;strokeWidth=1;" vertex="1" parent="1">
          <mxGeometry x="20" y="2890" width="100" height="1110" as="geometry" />
        </mxCell>
        <mxCell id="OrFUJ4ZmauogPBNhCRfa-137" value="" style="points=[];perimeter=orthogonalPerimeter;rounded=0;shadow=0;strokeWidth=1;" vertex="1" parent="OrFUJ4ZmauogPBNhCRfa-136">
          <mxGeometry x="45" y="70" width="10" height="1040" as="geometry" />
        </mxCell>
        <mxCell id="OrFUJ4ZmauogPBNhCRfa-138" value="InstanctConnect" style="shape=umlLifeline;perimeter=lifelinePerimeter;container=1;collapsible=0;recursiveResize=0;rounded=0;shadow=0;strokeWidth=1;" vertex="1" parent="1">
          <mxGeometry x="204" y="2890" width="110" height="1110" as="geometry" />
        </mxCell>
        <mxCell id="OrFUJ4ZmauogPBNhCRfa-139" value="" style="points=[];perimeter=orthogonalPerimeter;rounded=0;shadow=0;strokeWidth=1;" vertex="1" parent="OrFUJ4ZmauogPBNhCRfa-138">
          <mxGeometry x="50" y="80" width="10" height="1030" as="geometry" />
        </mxCell>
        <mxCell id="OrFUJ4ZmauogPBNhCRfa-140" value="" style="endArrow=classic;html=1;rounded=0;" edge="1" parent="OrFUJ4ZmauogPBNhCRfa-138">
          <mxGeometry width="50" height="50" relative="1" as="geometry">
            <mxPoint x="-125" y="170.5" as="sourcePoint" />
            <mxPoint x="45" y="170.5" as="targetPoint" />
            <Array as="points">
              <mxPoint x="-24.5" y="170.5" />
            </Array>
          </mxGeometry>
        </mxCell>
        <mxCell id="OrFUJ4ZmauogPBNhCRfa-141" value="" style="rhombus;whiteSpace=wrap;html=1;fontSize=12;" vertex="1" parent="OrFUJ4ZmauogPBNhCRfa-138">
          <mxGeometry x="5" y="405" width="100" height="100" as="geometry" />
        </mxCell>
        <mxCell id="OrFUJ4ZmauogPBNhCRfa-142" value="Match&lt;br&gt;FailCache?" style="text;html=1;align=center;verticalAlign=middle;resizable=0;points=[];autosize=1;strokeColor=none;fillColor=none;fontSize=12;" vertex="1" parent="OrFUJ4ZmauogPBNhCRfa-138">
          <mxGeometry x="10" y="435" width="80" height="40" as="geometry" />
        </mxCell>
        <mxCell id="OrFUJ4ZmauogPBNhCRfa-143" value="" style="rhombus;whiteSpace=wrap;html=1;fontSize=12;" vertex="1" parent="OrFUJ4ZmauogPBNhCRfa-138">
          <mxGeometry x="10" y="540" width="90" height="100" as="geometry" />
        </mxCell>
        <mxCell id="OrFUJ4ZmauogPBNhCRfa-144" value="Have &lt;br&gt;SucCache?" style="text;html=1;align=center;verticalAlign=middle;resizable=0;points=[];autosize=1;strokeColor=none;fillColor=none;fontSize=12;" vertex="1" parent="OrFUJ4ZmauogPBNhCRfa-138">
          <mxGeometry x="10" y="570" width="90" height="40" as="geometry" />
        </mxCell>
        <mxCell id="OrFUJ4ZmauogPBNhCRfa-145" value="" style="endArrow=classic;html=1;rounded=0;fontSize=12;entryX=0.5;entryY=0;entryDx=0;entryDy=0;" edge="1" parent="OrFUJ4ZmauogPBNhCRfa-138" target="OrFUJ4ZmauogPBNhCRfa-143">
          <mxGeometry width="50" height="50" relative="1" as="geometry">
            <mxPoint x="55" y="505" as="sourcePoint" />
            <mxPoint x="255" y="705" as="targetPoint" />
          </mxGeometry>
        </mxCell>
        <mxCell id="OrFUJ4ZmauogPBNhCRfa-146" value="Yes" style="text;html=1;align=center;verticalAlign=middle;resizable=0;points=[];autosize=1;strokeColor=none;fillColor=none;fontSize=12;" vertex="1" parent="OrFUJ4ZmauogPBNhCRfa-138">
          <mxGeometry x="15" y="500" width="40" height="30" as="geometry" />
        </mxCell>
        <mxCell id="OrFUJ4ZmauogPBNhCRfa-147" value="No" style="text;html=1;align=center;verticalAlign=middle;resizable=0;points=[];autosize=1;strokeColor=none;fillColor=none;fontSize=12;" vertex="1" parent="OrFUJ4ZmauogPBNhCRfa-138">
          <mxGeometry x="15" y="630" width="40" height="30" as="geometry" />
        </mxCell>
        <mxCell id="OrFUJ4ZmauogPBNhCRfa-148" value="" style="endArrow=classic;html=1;rounded=0;fontSize=12;exitX=0.022;exitY=0.525;exitDx=0;exitDy=0;exitPerimeter=0;" edge="1" parent="OrFUJ4ZmauogPBNhCRfa-138" source="OrFUJ4ZmauogPBNhCRfa-144">
          <mxGeometry width="50" height="50" relative="1" as="geometry">
            <mxPoint x="-20" y="470" as="sourcePoint" />
            <mxPoint x="40" y="1005" as="targetPoint" />
            <Array as="points">
              <mxPoint x="-50" y="591" />
              <mxPoint x="-50" y="1005" />
            </Array>
          </mxGeometry>
        </mxCell>
        <mxCell id="OrFUJ4ZmauogPBNhCRfa-149" style="edgeStyle=orthogonalEdgeStyle;rounded=0;orthogonalLoop=1;jettySize=auto;html=1;exitX=0.5;exitY=1;exitDx=0;exitDy=0;fontSize=12;entryX=0.5;entryY=0;entryDx=0;entryDy=0;" edge="1" parent="OrFUJ4ZmauogPBNhCRfa-138" source="OrFUJ4ZmauogPBNhCRfa-150" target="OrFUJ4ZmauogPBNhCRfa-141">
          <mxGeometry relative="1" as="geometry" />
        </mxCell>
        <mxCell id="OrFUJ4ZmauogPBNhCRfa-150" value="" style="rhombus;whiteSpace=wrap;html=1;fontSize=12;" vertex="1" parent="OrFUJ4ZmauogPBNhCRfa-138">
          <mxGeometry x="5" y="270" width="100" height="100" as="geometry" />
        </mxCell>
        <mxCell id="OrFUJ4ZmauogPBNhCRfa-151" value="GetZtInfo&lt;br&gt;Success?" style="text;html=1;align=center;verticalAlign=middle;resizable=0;points=[];autosize=1;strokeColor=none;fillColor=none;fontSize=12;" vertex="1" parent="OrFUJ4ZmauogPBNhCRfa-138">
          <mxGeometry x="10" y="300" width="80" height="40" as="geometry" />
        </mxCell>
        <mxCell id="OrFUJ4ZmauogPBNhCRfa-152" value="" style="endArrow=classic;html=1;rounded=0;fontSize=12;exitX=1;exitY=0.5;exitDx=0;exitDy=0;entryX=0.518;entryY=0.62;entryDx=0;entryDy=0;entryPerimeter=0;" edge="1" parent="OrFUJ4ZmauogPBNhCRfa-138" source="OrFUJ4ZmauogPBNhCRfa-150" target="OrFUJ4ZmauogPBNhCRfa-138">
          <mxGeometry width="50" height="50" relative="1" as="geometry">
            <mxPoint x="200" y="600" as="sourcePoint" />
            <mxPoint x="150" y="680" as="targetPoint" />
            <Array as="points">
              <mxPoint x="150" y="320" />
              <mxPoint x="150" y="688" />
            </Array>
          </mxGeometry>
        </mxCell>
        <mxCell id="OrFUJ4ZmauogPBNhCRfa-153" value="Push License" style="text;html=1;align=center;verticalAlign=middle;resizable=0;points=[];autosize=1;strokeColor=none;fillColor=none;fontSize=12;" vertex="1" parent="OrFUJ4ZmauogPBNhCRfa-138">
          <mxGeometry x="-50" y="950" width="100" height="30" as="geometry" />
        </mxCell>
        <mxCell id="OrFUJ4ZmauogPBNhCRfa-154" value="LicenseManager" style="shape=umlLifeline;perimeter=lifelinePerimeter;container=1;collapsible=0;recursiveResize=0;rounded=0;shadow=0;strokeWidth=1;" vertex="1" parent="1">
          <mxGeometry x="730" y="2890" width="100" height="1120" as="geometry" />
        </mxCell>
        <mxCell id="OrFUJ4ZmauogPBNhCRfa-155" value="" style="points=[];perimeter=orthogonalPerimeter;rounded=0;shadow=0;strokeWidth=1;" vertex="1" parent="OrFUJ4ZmauogPBNhCRfa-154">
          <mxGeometry x="45" y="80" width="10" height="1030" as="geometry" />
        </mxCell>
        <mxCell id="OrFUJ4ZmauogPBNhCRfa-156" value="" style="endArrow=classic;html=1;rounded=0;" edge="1" parent="1">
          <mxGeometry width="50" height="50" relative="1" as="geometry">
            <mxPoint x="80" y="2980" as="sourcePoint" />
            <mxPoint x="250" y="2980" as="targetPoint" />
            <Array as="points">
              <mxPoint x="150" y="2980" />
              <mxPoint x="170" y="2980" />
              <mxPoint x="210" y="2980" />
            </Array>
          </mxGeometry>
        </mxCell>
        <mxCell id="OrFUJ4ZmauogPBNhCRfa-157" value="Connect to ZT Server" style="text;html=1;align=center;verticalAlign=middle;resizable=0;points=[];autosize=1;strokeColor=none;fillColor=none;" vertex="1" parent="1">
          <mxGeometry x="89" y="2955" width="140" height="30" as="geometry" />
        </mxCell>
        <mxCell id="OrFUJ4ZmauogPBNhCRfa-158" value="Auth1 Response" style="text;html=1;align=center;verticalAlign=middle;resizable=0;points=[];autosize=1;strokeColor=none;fillColor=none;" vertex="1" parent="1">
          <mxGeometry x="105" y="3040" width="110" height="30" as="geometry" />
        </mxCell>
        <mxCell id="OrFUJ4ZmauogPBNhCRfa-159" value="MySonicWall" style="shape=umlLifeline;perimeter=lifelinePerimeter;container=1;collapsible=0;recursiveResize=0;rounded=0;shadow=0;strokeWidth=1;" vertex="1" parent="1">
          <mxGeometry x="570" y="2890" width="100" height="1110" as="geometry" />
        </mxCell>
        <mxCell id="OrFUJ4ZmauogPBNhCRfa-160" value="" style="points=[];perimeter=orthogonalPerimeter;rounded=0;shadow=0;strokeWidth=1;" vertex="1" parent="OrFUJ4ZmauogPBNhCRfa-159">
          <mxGeometry x="45" y="80" width="10" height="1030" as="geometry" />
        </mxCell>
        <mxCell id="OrFUJ4ZmauogPBNhCRfa-161" value="" style="endArrow=classic;html=1;rounded=0;fontSize=12;" edge="1" parent="OrFUJ4ZmauogPBNhCRfa-159">
          <mxGeometry width="50" height="50" relative="1" as="geometry">
            <mxPoint x="-300" y="780" as="sourcePoint" />
            <mxPoint x="51.25" y="780" as="targetPoint" />
            <Array as="points">
              <mxPoint x="-8.25" y="780" />
            </Array>
          </mxGeometry>
        </mxCell>
        <mxCell id="OrFUJ4ZmauogPBNhCRfa-162" value="" style="endArrow=classic;html=1;rounded=0;fontSize=12;" edge="1" parent="OrFUJ4ZmauogPBNhCRfa-159">
          <mxGeometry width="50" height="50" relative="1" as="geometry">
            <mxPoint x="202.25" y="870" as="sourcePoint" />
            <mxPoint x="-313.25" y="870" as="targetPoint" />
          </mxGeometry>
        </mxCell>
        <mxCell id="OrFUJ4ZmauogPBNhCRfa-163" value="" style="endArrow=classic;html=1;rounded=0;fontSize=12;exitX=0.1;exitY=0.484;exitDx=0;exitDy=0;exitPerimeter=0;" edge="1" parent="OrFUJ4ZmauogPBNhCRfa-159">
          <mxGeometry width="50" height="50" relative="1" as="geometry">
            <mxPoint x="44" y="745.9200000000001" as="sourcePoint" />
            <mxPoint x="-310" y="746" as="targetPoint" />
          </mxGeometry>
        </mxCell>
        <mxCell id="OrFUJ4ZmauogPBNhCRfa-164" value="Get ZT Server Request" style="text;html=1;align=center;verticalAlign=middle;resizable=0;points=[];autosize=1;strokeColor=none;fillColor=none;fontSize=12;" vertex="1" parent="OrFUJ4ZmauogPBNhCRfa-159">
          <mxGeometry x="-196.75" y="690" width="150" height="30" as="geometry" />
        </mxCell>
        <mxCell id="OrFUJ4ZmauogPBNhCRfa-165" value="" style="endArrow=classic;html=1;rounded=0;fontSize=12;" edge="1" parent="OrFUJ4ZmauogPBNhCRfa-159">
          <mxGeometry width="50" height="50" relative="1" as="geometry">
            <mxPoint x="-300" y="710" as="sourcePoint" />
            <mxPoint x="47.5" y="710" as="targetPoint" />
            <Array as="points">
              <mxPoint x="-86.75" y="710" />
            </Array>
          </mxGeometry>
        </mxCell>
        <mxCell id="OrFUJ4ZmauogPBNhCRfa-166" value="Get ZT Server Response" style="text;html=1;align=center;verticalAlign=middle;resizable=0;points=[];autosize=1;strokeColor=none;fillColor=none;fontSize=12;" vertex="1" parent="OrFUJ4ZmauogPBNhCRfa-159">
          <mxGeometry x="-201.75" y="720" width="160" height="30" as="geometry" />
        </mxCell>
        <mxCell id="OrFUJ4ZmauogPBNhCRfa-167" value="Get License Request" style="text;html=1;align=center;verticalAlign=middle;resizable=0;points=[];autosize=1;strokeColor=none;fillColor=none;fontSize=12;" vertex="1" parent="OrFUJ4ZmauogPBNhCRfa-159">
          <mxGeometry x="-191.75" y="888" width="140" height="30" as="geometry" />
        </mxCell>
        <mxCell id="OrFUJ4ZmauogPBNhCRfa-168" value="Get License Response" style="text;html=1;align=center;verticalAlign=middle;resizable=0;points=[];autosize=1;strokeColor=none;fillColor=none;fontSize=12;" vertex="1" parent="OrFUJ4ZmauogPBNhCRfa-159">
          <mxGeometry x="-191.75" y="916" width="140" height="30" as="geometry" />
        </mxCell>
        <mxCell id="OrFUJ4ZmauogPBNhCRfa-169" value="" style="endArrow=classic;html=1;rounded=0;fontSize=12;" edge="1" parent="OrFUJ4ZmauogPBNhCRfa-159">
          <mxGeometry width="50" height="50" relative="1" as="geometry">
            <mxPoint x="-304" y="910" as="sourcePoint" />
            <mxPoint x="45.5" y="910" as="targetPoint" />
            <Array as="points">
              <mxPoint x="-89" y="910" />
            </Array>
          </mxGeometry>
        </mxCell>
        <mxCell id="OrFUJ4ZmauogPBNhCRfa-170" value="Validate SerialNumber Response" style="text;html=1;align=center;verticalAlign=middle;resizable=0;points=[];autosize=1;strokeColor=none;fillColor=none;fontSize=12;" vertex="1" parent="OrFUJ4ZmauogPBNhCRfa-159">
          <mxGeometry x="-221.75" y="780" width="200" height="30" as="geometry" />
        </mxCell>
        <mxCell id="OrFUJ4ZmauogPBNhCRfa-171" value="" style="endArrow=classic;html=1;rounded=0;fontSize=12;" edge="1" parent="OrFUJ4ZmauogPBNhCRfa-159">
          <mxGeometry width="50" height="50" relative="1" as="geometry">
            <mxPoint x="51.25" y="804.2399999999998" as="sourcePoint" />
            <mxPoint x="-310" y="804" as="targetPoint" />
          </mxGeometry>
        </mxCell>
        <mxCell id="OrFUJ4ZmauogPBNhCRfa-172" value="Get ZT Key Request" style="text;html=1;align=center;verticalAlign=middle;resizable=0;points=[];autosize=1;strokeColor=none;fillColor=none;fontSize=12;" vertex="1" parent="OrFUJ4ZmauogPBNhCRfa-159">
          <mxGeometry x="-186.75" y="826" width="130" height="30" as="geometry" />
        </mxCell>
        <mxCell id="OrFUJ4ZmauogPBNhCRfa-173" value="Validate SerialNumber Request" style="text;html=1;align=center;verticalAlign=middle;resizable=0;points=[];autosize=1;strokeColor=none;fillColor=none;fontSize=12;" vertex="1" parent="OrFUJ4ZmauogPBNhCRfa-159">
          <mxGeometry x="-216.75" y="760" width="190" height="30" as="geometry" />
        </mxCell>
        <mxCell id="OrFUJ4ZmauogPBNhCRfa-174" value="Get ZT Key Response" style="text;html=1;align=center;verticalAlign=middle;resizable=0;points=[];autosize=1;strokeColor=none;fillColor=none;fontSize=12;" vertex="1" parent="OrFUJ4ZmauogPBNhCRfa-159">
          <mxGeometry x="-191.75" y="849" width="140" height="30" as="geometry" />
        </mxCell>
        <mxCell id="OrFUJ4ZmauogPBNhCRfa-175" value="" style="endArrow=classic;html=1;rounded=0;fontSize=12;" edge="1" parent="OrFUJ4ZmauogPBNhCRfa-159">
          <mxGeometry width="50" height="50" relative="1" as="geometry">
            <mxPoint x="-310" y="850" as="sourcePoint" />
            <mxPoint x="205.5" y="848" as="targetPoint" />
            <Array as="points">
              <mxPoint x="22" y="848.1199999999999" />
            </Array>
          </mxGeometry>
        </mxCell>
        <mxCell id="OrFUJ4ZmauogPBNhCRfa-176" value="" style="endArrow=classic;html=1;rounded=0;fontSize=12;" edge="1" parent="1">
          <mxGeometry width="50" height="50" relative="1" as="geometry">
            <mxPoint x="250" y="3940" as="sourcePoint" />
            <mxPoint x="74.5" y="3940" as="targetPoint" />
            <Array as="points">
              <mxPoint x="195" y="3940" />
            </Array>
          </mxGeometry>
        </mxCell>
        <mxCell id="OrFUJ4ZmauogPBNhCRfa-177" value="" style="endArrow=classic;html=1;rounded=0;fontSize=12;" edge="1" parent="1">
          <mxGeometry width="50" height="50" relative="1" as="geometry">
            <mxPoint x="78" y="3980" as="sourcePoint" />
            <mxPoint x="248" y="3980" as="targetPoint" />
            <Array as="points">
              <mxPoint x="193" y="3980" />
            </Array>
          </mxGeometry>
        </mxCell>
        <mxCell id="OrFUJ4ZmauogPBNhCRfa-178" value="Auth2 Request(ZTKey)" style="text;html=1;align=center;verticalAlign=middle;resizable=0;points=[];autosize=1;strokeColor=none;fillColor=none;fontSize=12;" vertex="1" parent="1">
          <mxGeometry x="95" y="3920" width="150" height="30" as="geometry" />
        </mxCell>
        <mxCell id="OrFUJ4ZmauogPBNhCRfa-179" value="Auth2 Response" style="text;html=1;align=center;verticalAlign=middle;resizable=0;points=[];autosize=1;strokeColor=none;fillColor=none;fontSize=12;" vertex="1" parent="1">
          <mxGeometry x="115" y="3958" width="110" height="30" as="geometry" />
        </mxCell>
        <mxCell id="OrFUJ4ZmauogPBNhCRfa-180" value="(SN/AuthCode)" style="text;html=1;align=center;verticalAlign=middle;resizable=0;points=[];autosize=1;strokeColor=none;fillColor=none;fontSize=12;" vertex="1" parent="1">
          <mxGeometry x="110" y="3055" width="100" height="30" as="geometry" />
        </mxCell>
        <mxCell id="OrFUJ4ZmauogPBNhCRfa-181" value="NSM Cache" style="shape=umlLifeline;perimeter=lifelinePerimeter;container=1;collapsible=0;recursiveResize=0;rounded=0;shadow=0;strokeWidth=1;" vertex="1" parent="1">
          <mxGeometry x="385" y="2890" width="100" height="420" as="geometry" />
        </mxCell>
        <mxCell id="OrFUJ4ZmauogPBNhCRfa-182" value="" style="points=[];perimeter=orthogonalPerimeter;rounded=0;shadow=0;strokeWidth=1;" vertex="1" parent="OrFUJ4ZmauogPBNhCRfa-181">
          <mxGeometry x="45" y="80" width="10" height="310" as="geometry" />
        </mxCell>
        <mxCell id="OrFUJ4ZmauogPBNhCRfa-183" value="" style="endArrow=classic;html=1;rounded=0;fontSize=12;exitX=0.5;exitY=0.876;exitDx=0;exitDy=0;exitPerimeter=0;dashed=1;" edge="1" parent="1">
          <mxGeometry width="50" height="50" relative="1" as="geometry">
            <mxPoint x="252.5" y="3859.9999999999995" as="sourcePoint" />
            <mxPoint x="72" y="3859.9999999999995" as="targetPoint" />
          </mxGeometry>
        </mxCell>
        <mxCell id="OrFUJ4ZmauogPBNhCRfa-184" value="" style="endArrow=classic;html=1;rounded=0;fontSize=12;exitX=1;exitY=0.155;exitDx=0;exitDy=0;exitPerimeter=0;" edge="1" parent="1" source="OrFUJ4ZmauogPBNhCRfa-139" target="OrFUJ4ZmauogPBNhCRfa-182">
          <mxGeometry width="50" height="50" relative="1" as="geometry">
            <mxPoint x="400" y="3190" as="sourcePoint" />
            <mxPoint x="450" y="3140" as="targetPoint" />
          </mxGeometry>
        </mxCell>
        <mxCell id="OrFUJ4ZmauogPBNhCRfa-185" value="Get ZT Info" style="text;html=1;align=center;verticalAlign=middle;resizable=0;points=[];autosize=1;strokeColor=none;fillColor=none;fontSize=12;" vertex="1" parent="1">
          <mxGeometry x="300" y="3100" width="80" height="30" as="geometry" />
        </mxCell>
        <mxCell id="OrFUJ4ZmauogPBNhCRfa-186" value="" style="endArrow=classic;html=1;rounded=0;fontSize=12;entryX=0.9;entryY=0.18;entryDx=0;entryDy=0;entryPerimeter=0;exitX=-0.2;exitY=0.516;exitDx=0;exitDy=0;exitPerimeter=0;" edge="1" parent="1" source="OrFUJ4ZmauogPBNhCRfa-182" target="OrFUJ4ZmauogPBNhCRfa-139">
          <mxGeometry width="50" height="50" relative="1" as="geometry">
            <mxPoint x="400" y="3190" as="sourcePoint" />
            <mxPoint x="450" y="3140" as="targetPoint" />
          </mxGeometry>
        </mxCell>
        <mxCell id="OrFUJ4ZmauogPBNhCRfa-187" value="Response" style="text;html=1;align=center;verticalAlign=middle;resizable=0;points=[];autosize=1;strokeColor=none;fillColor=none;fontSize=12;" vertex="1" parent="1">
          <mxGeometry x="300" y="3150" width="80" height="30" as="geometry" />
        </mxCell>
        <mxCell id="OrFUJ4ZmauogPBNhCRfa-188" value="No" style="text;html=1;align=center;verticalAlign=middle;resizable=0;points=[];autosize=1;strokeColor=none;fillColor=none;fontSize=12;" vertex="1" parent="1">
          <mxGeometry x="154.25" y="3345" width="40" height="30" as="geometry" />
        </mxCell>
        <mxCell id="OrFUJ4ZmauogPBNhCRfa-189" value="Yes" style="text;html=1;align=center;verticalAlign=middle;resizable=0;points=[];autosize=1;strokeColor=none;fillColor=none;fontSize=12;" vertex="1" parent="1">
          <mxGeometry x="165" y="3480" width="40" height="30" as="geometry" />
        </mxCell>
        <mxCell id="OrFUJ4ZmauogPBNhCRfa-190" value="" style="endArrow=classic;html=1;rounded=0;fontSize=12;exitX=-0.037;exitY=0.45;exitDx=0;exitDy=0;exitPerimeter=0;" edge="1" parent="1">
          <mxGeometry width="50" height="50" relative="1" as="geometry">
            <mxPoint x="210.03999999999996" y="3343" as="sourcePoint" />
            <mxPoint x="154" y="3550" as="targetPoint" />
            <Array as="points">
              <mxPoint x="154" y="3343" />
            </Array>
          </mxGeometry>
        </mxCell>
        <mxCell id="OrFUJ4ZmauogPBNhCRfa-191" value="Yes" style="text;html=1;align=center;verticalAlign=middle;resizable=0;points=[];autosize=1;strokeColor=none;fillColor=none;fontSize=12;" vertex="1" parent="1">
          <mxGeometry x="245" y="3255" width="40" height="30" as="geometry" />
        </mxCell>
        <mxCell id="OrFUJ4ZmauogPBNhCRfa-192" value="No" style="text;html=1;align=center;verticalAlign=middle;resizable=0;points=[];autosize=1;strokeColor=none;fillColor=none;fontSize=12;" vertex="1" parent="1">
          <mxGeometry x="290" y="3220" width="40" height="30" as="geometry" />
        </mxCell>
        <mxCell id="OrFUJ4ZmauogPBNhCRfa-193" value="" style="endArrow=classic;html=1;rounded=0;fontSize=12;exitX=0;exitY=0.833;exitDx=0;exitDy=0;exitPerimeter=0;" edge="1" parent="1" source="OrFUJ4ZmauogPBNhCRfa-160" target="OrFUJ4ZmauogPBNhCRfa-138">
          <mxGeometry width="50" height="50" relative="1" as="geometry">
            <mxPoint x="400" y="3580" as="sourcePoint" />
            <mxPoint x="450" y="3530" as="targetPoint" />
          </mxGeometry>
        </mxCell>
        <mxCell id="OrFUJ4ZmauogPBNhCRfa-194" value="" style="endArrow=classic;html=1;rounded=0;fontSize=12;exitX=-0.1;exitY=0.088;exitDx=0;exitDy=0;exitPerimeter=0;" edge="1" parent="1">
          <mxGeometry width="50" height="50" relative="1" as="geometry">
            <mxPoint x="244" y="3029.64" as="sourcePoint" />
            <mxPoint x="69.5" y="3029.64" as="targetPoint" />
          </mxGeometry>
        </mxCell>
        <mxCell id="OrFUJ4ZmauogPBNhCRfa-195" value="Auth1 Request" style="text;html=1;align=center;verticalAlign=middle;resizable=0;points=[];autosize=1;strokeColor=none;fillColor=none;fontSize=12;" vertex="1" parent="1">
          <mxGeometry x="109" y="3007" width="100" height="30" as="geometry" />
        </mxCell>
        <mxCell id="OrFUJ4ZmauogPBNhCRfa-196" value="" style="endArrow=classic;html=1;rounded=0;fontSize=12;exitX=1;exitY=0.5;exitDx=0;exitDy=0;" edge="1" parent="1" source="OrFUJ4ZmauogPBNhCRfa-120">
          <mxGeometry width="50" height="50" relative="1" as="geometry">
            <mxPoint x="405" y="1620" as="sourcePoint" />
            <mxPoint x="355" y="1510" as="targetPoint" />
          </mxGeometry>
        </mxCell>
        <mxCell id="OrFUJ4ZmauogPBNhCRfa-204" value="Add to FailCache" style="text;html=1;align=center;verticalAlign=middle;resizable=0;points=[];autosize=1;strokeColor=none;fillColor=none;fontSize=12;" vertex="1" parent="1">
          <mxGeometry x="342" y="1735" width="120" height="30" as="geometry" />
        </mxCell>
        <mxCell id="OrFUJ4ZmauogPBNhCRfa-207" value="" style="ellipse;whiteSpace=wrap;html=1;fontSize=12;fillColor=none;" vertex="1" parent="1">
          <mxGeometry x="350" y="1720" width="105" height="60" as="geometry" />
        </mxCell>
        <mxCell id="OrFUJ4ZmauogPBNhCRfa-212" value="FireWall" style="shape=umlLifeline;perimeter=lifelinePerimeter;container=1;collapsible=0;recursiveResize=0;rounded=0;shadow=0;strokeWidth=1;" vertex="1" parent="1">
          <mxGeometry x="10" y="1920" width="100" height="920" as="geometry" />
        </mxCell>
        <mxCell id="OrFUJ4ZmauogPBNhCRfa-213" value="" style="points=[];perimeter=orthogonalPerimeter;rounded=0;shadow=0;strokeWidth=1;" vertex="1" parent="OrFUJ4ZmauogPBNhCRfa-212">
          <mxGeometry x="45" y="70" width="10" height="850" as="geometry" />
        </mxCell>
        <mxCell id="OrFUJ4ZmauogPBNhCRfa-214" value="InstanctConnect" style="shape=umlLifeline;perimeter=lifelinePerimeter;container=1;collapsible=0;recursiveResize=0;rounded=0;shadow=0;strokeWidth=1;" vertex="1" parent="1">
          <mxGeometry x="162" y="1920" width="165" height="830" as="geometry" />
        </mxCell>
        <mxCell id="OrFUJ4ZmauogPBNhCRfa-215" value="" style="points=[];perimeter=orthogonalPerimeter;rounded=0;shadow=0;strokeWidth=1;" vertex="1" parent="OrFUJ4ZmauogPBNhCRfa-214">
          <mxGeometry x="77.5" y="80" width="10" height="840" as="geometry" />
        </mxCell>
        <mxCell id="OrFUJ4ZmauogPBNhCRfa-216" value="" style="endArrow=classic;html=1;rounded=0;" edge="1" parent="OrFUJ4ZmauogPBNhCRfa-214">
          <mxGeometry width="50" height="50" relative="1" as="geometry">
            <mxPoint x="-97" y="170.5" as="sourcePoint" />
            <mxPoint x="73" y="170.5" as="targetPoint" />
            <Array as="points">
              <mxPoint x="3.5" y="170.5" />
            </Array>
          </mxGeometry>
        </mxCell>
        <mxCell id="OrFUJ4ZmauogPBNhCRfa-217" style="edgeStyle=orthogonalEdgeStyle;rounded=0;orthogonalLoop=1;jettySize=auto;html=1;exitX=0.5;exitY=1;exitDx=0;exitDy=0;fontSize=12;entryX=0.5;entryY=0;entryDx=0;entryDy=0;" edge="1" parent="OrFUJ4ZmauogPBNhCRfa-214">
          <mxGeometry relative="1" as="geometry">
            <mxPoint x="87" y="370" as="sourcePoint" />
            <mxPoint x="82" y="405" as="targetPoint" />
          </mxGeometry>
        </mxCell>
        <mxCell id="OrFUJ4ZmauogPBNhCRfa-218" value="" style="rhombus;whiteSpace=wrap;html=1;fontSize=12;" vertex="1" parent="OrFUJ4ZmauogPBNhCRfa-214">
          <mxGeometry x="32" y="270" width="100" height="100" as="geometry" />
        </mxCell>
        <mxCell id="OrFUJ4ZmauogPBNhCRfa-219" value="GetZtInfo&lt;br&gt;Success?" style="text;html=1;align=center;verticalAlign=middle;resizable=0;points=[];autosize=1;strokeColor=none;fillColor=none;fontSize=12;" vertex="1" parent="OrFUJ4ZmauogPBNhCRfa-214">
          <mxGeometry x="37" y="300" width="80" height="40" as="geometry" />
        </mxCell>
        <mxCell id="OrFUJ4ZmauogPBNhCRfa-220" value="" style="endArrow=classic;html=1;rounded=0;fontSize=12;" edge="1" parent="OrFUJ4ZmauogPBNhCRfa-214">
          <mxGeometry width="50" height="50" relative="1" as="geometry">
            <mxPoint x="78" y="573" as="sourcePoint" />
            <mxPoint x="-97.5" y="573" as="targetPoint" />
            <Array as="points">
              <mxPoint x="23" y="573" />
            </Array>
          </mxGeometry>
        </mxCell>
        <mxCell id="OrFUJ4ZmauogPBNhCRfa-221" value="" style="endArrow=classic;html=1;rounded=0;fontSize=12;entryX=-0.15;entryY=0.623;entryDx=0;entryDy=0;entryPerimeter=0;" edge="1" parent="OrFUJ4ZmauogPBNhCRfa-214" target="OrFUJ4ZmauogPBNhCRfa-215">
          <mxGeometry width="50" height="50" relative="1" as="geometry">
            <mxPoint x="-98" y="605" as="sourcePoint" />
            <mxPoint x="72" y="605" as="targetPoint" />
            <Array as="points">
              <mxPoint x="17" y="605" />
            </Array>
          </mxGeometry>
        </mxCell>
        <mxCell id="OrFUJ4ZmauogPBNhCRfa-222" value="Auth2 Request(ZTKey)" style="text;html=1;align=center;verticalAlign=middle;resizable=0;points=[];autosize=1;strokeColor=none;fillColor=none;fontSize=12;" vertex="1" parent="OrFUJ4ZmauogPBNhCRfa-214">
          <mxGeometry x="-75" y="553" width="150" height="30" as="geometry" />
        </mxCell>
        <mxCell id="OrFUJ4ZmauogPBNhCRfa-223" style="edgeStyle=orthogonalEdgeStyle;rounded=0;orthogonalLoop=1;jettySize=auto;html=1;exitX=0.5;exitY=1;exitDx=0;exitDy=0;fontSize=12;entryX=0.5;entryY=0;entryDx=0;entryDy=0;" edge="1" parent="OrFUJ4ZmauogPBNhCRfa-214">
          <mxGeometry relative="1" as="geometry">
            <mxPoint x="88" y="733" as="sourcePoint" />
            <mxPoint x="83" y="768" as="targetPoint" />
          </mxGeometry>
        </mxCell>
        <mxCell id="OrFUJ4ZmauogPBNhCRfa-224" value="" style="rhombus;whiteSpace=wrap;html=1;fontSize=12;" vertex="1" parent="OrFUJ4ZmauogPBNhCRfa-214">
          <mxGeometry x="33" y="633" width="100" height="100" as="geometry" />
        </mxCell>
        <mxCell id="OrFUJ4ZmauogPBNhCRfa-225" value="Auth2&lt;br&gt;Success?" style="text;html=1;align=center;verticalAlign=middle;resizable=0;points=[];autosize=1;strokeColor=none;fillColor=none;fontSize=12;" vertex="1" parent="OrFUJ4ZmauogPBNhCRfa-214">
          <mxGeometry x="38" y="663" width="80" height="40" as="geometry" />
        </mxCell>
        <mxCell id="OrFUJ4ZmauogPBNhCRfa-226" value="Yes" style="text;html=1;align=center;verticalAlign=middle;resizable=0;points=[];autosize=1;strokeColor=none;fillColor=none;fontSize=12;" vertex="1" parent="OrFUJ4ZmauogPBNhCRfa-214">
          <mxGeometry x="82" y="728" width="40" height="30" as="geometry" />
        </mxCell>
        <mxCell id="OrFUJ4ZmauogPBNhCRfa-227" value="No" style="text;html=1;align=center;verticalAlign=middle;resizable=0;points=[];autosize=1;strokeColor=none;fillColor=none;fontSize=12;" vertex="1" parent="OrFUJ4ZmauogPBNhCRfa-214">
          <mxGeometry x="128" y="683" width="40" height="30" as="geometry" />
        </mxCell>
        <mxCell id="OrFUJ4ZmauogPBNhCRfa-228" value="" style="endArrow=classic;html=1;rounded=0;fontSize=12;exitX=1;exitY=0.5;exitDx=0;exitDy=0;" edge="1" parent="OrFUJ4ZmauogPBNhCRfa-214" source="OrFUJ4ZmauogPBNhCRfa-224">
          <mxGeometry width="50" height="50" relative="1" as="geometry">
            <mxPoint x="228" y="793" as="sourcePoint" />
            <mxPoint x="178" y="683" as="targetPoint" />
          </mxGeometry>
        </mxCell>
        <mxCell id="OrFUJ4ZmauogPBNhCRfa-229" value="" style="ellipse;whiteSpace=wrap;html=1;fontSize=12;fillColor=none;" vertex="1" parent="OrFUJ4ZmauogPBNhCRfa-214">
          <mxGeometry x="88" y="758" width="100" height="35" as="geometry" />
        </mxCell>
        <mxCell id="OrFUJ4ZmauogPBNhCRfa-230" value="Del FailCache" style="text;html=1;align=center;verticalAlign=middle;resizable=0;points=[];autosize=1;strokeColor=none;fillColor=none;fontSize=12;" vertex="1" parent="OrFUJ4ZmauogPBNhCRfa-214">
          <mxGeometry x="88" y="760.5" width="100" height="30" as="geometry" />
        </mxCell>
        <mxCell id="OrFUJ4ZmauogPBNhCRfa-255" value="" style="rhombus;whiteSpace=wrap;html=1;fontSize=12;fillColor=default;" vertex="1" parent="OrFUJ4ZmauogPBNhCRfa-214">
          <mxGeometry x="32" y="410" width="100" height="80" as="geometry" />
        </mxCell>
        <mxCell id="OrFUJ4ZmauogPBNhCRfa-256" value="Match&lt;br&gt;&amp;nbsp;FailCache?" style="text;html=1;align=center;verticalAlign=middle;resizable=0;points=[];autosize=1;strokeColor=none;fillColor=none;fontSize=12;" vertex="1" parent="OrFUJ4ZmauogPBNhCRfa-214">
          <mxGeometry x="38" y="430" width="90" height="40" as="geometry" />
        </mxCell>
        <mxCell id="OrFUJ4ZmauogPBNhCRfa-262" value="" style="endArrow=classic;html=1;rounded=0;fontSize=12;exitX=0.5;exitY=1;exitDx=0;exitDy=0;entryX=0.491;entryY=0.589;entryDx=0;entryDy=0;entryPerimeter=0;" edge="1" parent="OrFUJ4ZmauogPBNhCRfa-214" source="OrFUJ4ZmauogPBNhCRfa-255" target="OrFUJ4ZmauogPBNhCRfa-214">
          <mxGeometry width="50" height="50" relative="1" as="geometry">
            <mxPoint x="238" y="630" as="sourcePoint" />
            <mxPoint x="288" y="580" as="targetPoint" />
          </mxGeometry>
        </mxCell>
        <mxCell id="OrFUJ4ZmauogPBNhCRfa-231" value="LicenseManager" style="shape=umlLifeline;perimeter=lifelinePerimeter;container=1;collapsible=0;recursiveResize=0;rounded=0;shadow=0;strokeWidth=1;" vertex="1" parent="1">
          <mxGeometry x="720" y="1920" width="100" height="920" as="geometry" />
        </mxCell>
        <mxCell id="OrFUJ4ZmauogPBNhCRfa-232" value="" style="points=[];perimeter=orthogonalPerimeter;rounded=0;shadow=0;strokeWidth=1;" vertex="1" parent="OrFUJ4ZmauogPBNhCRfa-231">
          <mxGeometry x="45" y="80" width="10" height="840" as="geometry" />
        </mxCell>
        <mxCell id="OrFUJ4ZmauogPBNhCRfa-233" value="" style="endArrow=classic;html=1;rounded=0;" edge="1" parent="1">
          <mxGeometry width="50" height="50" relative="1" as="geometry">
            <mxPoint x="70" y="2010" as="sourcePoint" />
            <mxPoint x="240" y="2010" as="targetPoint" />
            <Array as="points">
              <mxPoint x="140" y="2010" />
              <mxPoint x="160" y="2010" />
              <mxPoint x="200" y="2010" />
            </Array>
          </mxGeometry>
        </mxCell>
        <mxCell id="OrFUJ4ZmauogPBNhCRfa-234" value="Connect to ZT Server" style="text;html=1;align=center;verticalAlign=middle;resizable=0;points=[];autosize=1;strokeColor=none;fillColor=none;" vertex="1" parent="1">
          <mxGeometry x="79" y="1985" width="140" height="30" as="geometry" />
        </mxCell>
        <mxCell id="OrFUJ4ZmauogPBNhCRfa-235" value="Auth1 Response" style="text;html=1;align=center;verticalAlign=middle;resizable=0;points=[];autosize=1;strokeColor=none;fillColor=none;" vertex="1" parent="1">
          <mxGeometry x="95" y="2070" width="110" height="30" as="geometry" />
        </mxCell>
        <mxCell id="OrFUJ4ZmauogPBNhCRfa-236" value="MySonicWall" style="shape=umlLifeline;perimeter=lifelinePerimeter;container=1;collapsible=0;recursiveResize=0;rounded=0;shadow=0;strokeWidth=1;" vertex="1" parent="1">
          <mxGeometry x="560" y="1920" width="100" height="920" as="geometry" />
        </mxCell>
        <mxCell id="OrFUJ4ZmauogPBNhCRfa-237" value="" style="points=[];perimeter=orthogonalPerimeter;rounded=0;shadow=0;strokeWidth=1;" vertex="1" parent="OrFUJ4ZmauogPBNhCRfa-236">
          <mxGeometry x="45" y="80" width="10" height="840" as="geometry" />
        </mxCell>
        <mxCell id="OrFUJ4ZmauogPBNhCRfa-238" value="Auth2 Response" style="text;html=1;align=center;verticalAlign=middle;resizable=0;points=[];autosize=1;strokeColor=none;fillColor=none;fontSize=12;" vertex="1" parent="1">
          <mxGeometry x="120" y="2503" width="110" height="30" as="geometry" />
        </mxCell>
        <mxCell id="OrFUJ4ZmauogPBNhCRfa-239" value="(SN/AuthCode)" style="text;html=1;align=center;verticalAlign=middle;resizable=0;points=[];autosize=1;strokeColor=none;fillColor=none;fontSize=12;" vertex="1" parent="1">
          <mxGeometry x="100" y="2085" width="100" height="30" as="geometry" />
        </mxCell>
        <mxCell id="OrFUJ4ZmauogPBNhCRfa-240" value="NSM Cache" style="shape=umlLifeline;perimeter=lifelinePerimeter;container=1;collapsible=0;recursiveResize=0;rounded=0;shadow=0;strokeWidth=1;" vertex="1" parent="1">
          <mxGeometry x="375" y="1920" width="100" height="420" as="geometry" />
        </mxCell>
        <mxCell id="OrFUJ4ZmauogPBNhCRfa-241" value="" style="points=[];perimeter=orthogonalPerimeter;rounded=0;shadow=0;strokeWidth=1;" vertex="1" parent="OrFUJ4ZmauogPBNhCRfa-240">
          <mxGeometry x="45" y="80" width="10" height="310" as="geometry" />
        </mxCell>
        <mxCell id="OrFUJ4ZmauogPBNhCRfa-243" value="From MSW/LM" style="text;html=1;align=center;verticalAlign=middle;resizable=0;points=[];autosize=1;strokeColor=none;fillColor=none;fontSize=12;" vertex="1" parent="OrFUJ4ZmauogPBNhCRfa-240">
          <mxGeometry x="-56" y="324" width="100" height="30" as="geometry" />
        </mxCell>
        <mxCell id="OrFUJ4ZmauogPBNhCRfa-244" value="" style="endArrow=classic;html=1;rounded=0;fontSize=12;exitX=1;exitY=0.155;exitDx=0;exitDy=0;exitPerimeter=0;" edge="1" parent="1">
          <mxGeometry width="50" height="50" relative="1" as="geometry">
            <mxPoint x="255" y="2157.4" as="sourcePoint" />
            <mxPoint x="420" y="2157.4" as="targetPoint" />
          </mxGeometry>
        </mxCell>
        <mxCell id="OrFUJ4ZmauogPBNhCRfa-245" value="Get ZT Info" style="text;html=1;align=center;verticalAlign=middle;resizable=0;points=[];autosize=1;strokeColor=none;fillColor=none;fontSize=12;" vertex="1" parent="1">
          <mxGeometry x="290" y="2130" width="80" height="30" as="geometry" />
        </mxCell>
        <mxCell id="OrFUJ4ZmauogPBNhCRfa-246" value="" style="endArrow=classic;html=1;rounded=0;fontSize=12;entryX=0.5;entryY=0;entryDx=0;entryDy=0;exitX=-0.2;exitY=0.516;exitDx=0;exitDy=0;exitPerimeter=0;" edge="1" parent="1" source="OrFUJ4ZmauogPBNhCRfa-241" target="OrFUJ4ZmauogPBNhCRfa-218">
          <mxGeometry width="50" height="50" relative="1" as="geometry">
            <mxPoint x="390" y="2220" as="sourcePoint" />
            <mxPoint x="440" y="2170" as="targetPoint" />
          </mxGeometry>
        </mxCell>
        <mxCell id="OrFUJ4ZmauogPBNhCRfa-247" value="Response" style="text;html=1;align=center;verticalAlign=middle;resizable=0;points=[];autosize=1;strokeColor=none;fillColor=none;fontSize=12;" vertex="1" parent="1">
          <mxGeometry x="290" y="2180" width="80" height="30" as="geometry" />
        </mxCell>
        <mxCell id="OrFUJ4ZmauogPBNhCRfa-248" value="Yes" style="text;html=1;align=center;verticalAlign=middle;resizable=0;points=[];autosize=1;strokeColor=none;fillColor=none;fontSize=12;" vertex="1" parent="1">
          <mxGeometry x="246" y="2285" width="40" height="30" as="geometry" />
        </mxCell>
        <mxCell id="OrFUJ4ZmauogPBNhCRfa-249" value="No" style="text;html=1;align=center;verticalAlign=middle;resizable=0;points=[];autosize=1;strokeColor=none;fillColor=none;fontSize=12;" vertex="1" parent="1">
          <mxGeometry x="295" y="2220" width="40" height="30" as="geometry" />
        </mxCell>
        <mxCell id="OrFUJ4ZmauogPBNhCRfa-250" value="" style="endArrow=classic;html=1;rounded=0;fontSize=12;exitX=-0.1;exitY=0.088;exitDx=0;exitDy=0;exitPerimeter=0;" edge="1" parent="1">
          <mxGeometry width="50" height="50" relative="1" as="geometry">
            <mxPoint x="241" y="2059.64" as="sourcePoint" />
            <mxPoint x="66.5" y="2059.64" as="targetPoint" />
          </mxGeometry>
        </mxCell>
        <mxCell id="OrFUJ4ZmauogPBNhCRfa-251" value="Auth1 Request" style="text;html=1;align=center;verticalAlign=middle;resizable=0;points=[];autosize=1;strokeColor=none;fillColor=none;fontSize=12;" vertex="1" parent="1">
          <mxGeometry x="99" y="2037" width="100" height="30" as="geometry" />
        </mxCell>
        <mxCell id="OrFUJ4ZmauogPBNhCRfa-252" value="" style="endArrow=classic;html=1;rounded=0;fontSize=12;exitX=1;exitY=0.5;exitDx=0;exitDy=0;" edge="1" parent="1" source="OrFUJ4ZmauogPBNhCRfa-218">
          <mxGeometry width="50" height="50" relative="1" as="geometry">
            <mxPoint x="395" y="2350" as="sourcePoint" />
            <mxPoint x="345" y="2240" as="targetPoint" />
          </mxGeometry>
        </mxCell>
        <mxCell id="OrFUJ4ZmauogPBNhCRfa-253" value="Add to FailCache" style="text;html=1;align=center;verticalAlign=middle;resizable=0;points=[];autosize=1;strokeColor=none;fillColor=none;fontSize=12;" vertex="1" parent="1">
          <mxGeometry x="332" y="2588" width="120" height="30" as="geometry" />
        </mxCell>
        <mxCell id="OrFUJ4ZmauogPBNhCRfa-254" value="" style="ellipse;whiteSpace=wrap;html=1;fontSize=12;fillColor=none;" vertex="1" parent="1">
          <mxGeometry x="340" y="2573" width="105" height="60" as="geometry" />
        </mxCell>
        <mxCell id="OrFUJ4ZmauogPBNhCRfa-205" value="Del FailCache" style="text;html=1;align=center;verticalAlign=middle;resizable=0;points=[];autosize=1;strokeColor=none;fillColor=none;fontSize=12;" vertex="1" parent="1">
          <mxGeometry x="264" y="1831" width="100" height="30" as="geometry" />
        </mxCell>
        <mxCell id="OrFUJ4ZmauogPBNhCRfa-211" value="" style="ellipse;whiteSpace=wrap;html=1;fontSize=12;fillColor=none;" vertex="1" parent="1">
          <mxGeometry x="264" y="1831" width="100" height="35" as="geometry" />
        </mxCell>
        <mxCell id="OrFUJ4ZmauogPBNhCRfa-257" value="" style="endArrow=classic;html=1;rounded=0;fontSize=12;exitX=1.033;exitY=0.5;exitDx=0;exitDy=0;exitPerimeter=0;" edge="1" parent="1" source="OrFUJ4ZmauogPBNhCRfa-256">
          <mxGeometry width="50" height="50" relative="1" as="geometry">
            <mxPoint x="400" y="2550" as="sourcePoint" />
            <mxPoint x="330" y="2370" as="targetPoint" />
          </mxGeometry>
        </mxCell>
        <mxCell id="OrFUJ4ZmauogPBNhCRfa-258" value="Yes" style="text;html=1;align=center;verticalAlign=middle;resizable=0;points=[];autosize=1;strokeColor=none;fillColor=none;fontSize=12;" vertex="1" parent="1">
          <mxGeometry x="290" y="2345" width="40" height="30" as="geometry" />
        </mxCell>
        <mxCell id="OrFUJ4ZmauogPBNhCRfa-242" value="" style="ellipse;whiteSpace=wrap;html=1;fontSize=12;fillColor=none;" vertex="1" parent="1">
          <mxGeometry x="326.5" y="2244" width="85" height="30" as="geometry" />
        </mxCell>
        <mxCell id="OrFUJ4ZmauogPBNhCRfa-260" value="From MSW/LM" style="text;html=1;align=center;verticalAlign=middle;resizable=0;points=[];autosize=1;strokeColor=none;fillColor=none;fontSize=12;" vertex="1" parent="1">
          <mxGeometry x="330" y="2357" width="100" height="30" as="geometry" />
        </mxCell>
        <mxCell id="OrFUJ4ZmauogPBNhCRfa-261" value="" style="ellipse;whiteSpace=wrap;html=1;fontSize=12;fillColor=none;" vertex="1" parent="1">
          <mxGeometry x="337.5" y="2357" width="85" height="30" as="geometry" />
        </mxCell>
        <mxCell id="OrFUJ4ZmauogPBNhCRfa-263" value="No" style="text;html=1;align=center;verticalAlign=middle;resizable=0;points=[];autosize=1;strokeColor=none;fillColor=none;fontSize=12;" vertex="1" parent="1">
          <mxGeometry x="242" y="2415" width="40" height="30" as="geometry" />
        </mxCell>
      </root>
    </mxGraphModel>
  </diagram>
</mxfile>
